<svg width="1440" height="345" viewBox="0 0 1440 345" fill="none" xmlns="http://www.w3.org/2000/svg">
<rect width="1440" height="345" fill="#232323"/>
<path d="M535.632 183.752C536.256 183.752 536.76 183.944 537.144 184.328C537.576 184.712 537.792 185.216 537.792 185.84C537.792 186.464 537.576 186.992 537.144 187.424C536.76 187.808 536.256 188 535.632 188H509.928C509.304 188 508.776 187.808 508.344 187.424C507.96 186.992 507.768 186.464 507.768 185.84V139.76C507.768 139.136 507.984 138.632 508.416 138.248C508.848 137.816 509.4 137.6 510.072 137.6C510.696 137.6 511.224 137.816 511.656 138.248C512.088 138.632 512.304 139.136 512.304 139.76V183.752H535.632ZM572.512 151.424C573.136 151.424 573.64 151.64 574.024 152.072C574.456 152.456 574.672 152.96 574.672 153.584V173.888C574.672 178.592 573.352 182.216 570.712 184.76C568.072 187.256 564.424 188.504 559.768 188.504C555.16 188.504 551.536 187.256 548.896 184.76C546.304 182.216 545.008 178.592 545.008 173.888V153.584C545.008 152.96 545.2 152.456 545.584 152.072C546.016 151.64 546.544 151.424 547.168 151.424C547.792 151.424 548.296 151.64 548.68 152.072C549.112 152.456 549.328 152.96 549.328 153.584V173.888C549.328 177.344 550.24 179.984 552.064 181.808C553.888 183.584 556.456 184.472 559.768 184.472C563.128 184.472 565.72 183.584 567.544 181.808C569.416 179.984 570.352 177.344 570.352 173.888V153.584C570.352 152.96 570.544 152.456 570.928 152.072C571.36 151.64 571.888 151.424 572.512 151.424ZM601.913 150.344C604.169 150.344 606.257 150.608 608.177 151.136C610.145 151.616 611.705 152.288 612.857 153.152C614.057 154.016 614.657 154.952 614.657 155.96C614.657 156.488 614.465 156.968 614.081 157.4C613.745 157.832 613.313 158.048 612.785 158.048C612.305 158.048 611.897 157.952 611.561 157.76C611.273 157.568 610.937 157.28 610.553 156.896C609.929 156.272 609.329 155.816 608.753 155.528C608.033 155.192 607.073 154.928 605.873 154.736C604.721 154.496 603.473 154.376 602.129 154.376C599.489 154.376 597.065 155.048 594.857 156.392C592.697 157.736 590.993 159.56 589.745 161.864C588.497 164.168 587.873 166.712 587.873 169.496C587.873 172.376 588.473 174.968 589.673 177.272C590.873 179.576 592.529 181.4 594.641 182.744C596.801 184.04 599.249 184.688 601.985 184.688C603.713 184.688 605.081 184.544 606.089 184.256C607.145 183.968 608.177 183.56 609.185 183.032C609.521 182.84 610.097 182.408 610.913 181.736C611.297 181.4 611.633 181.16 611.921 181.016C612.209 180.824 612.521 180.728 612.857 180.728C613.433 180.728 613.889 180.92 614.225 181.304C614.561 181.64 614.729 182.096 614.729 182.672C614.729 183.488 614.153 184.376 613.001 185.336C611.849 186.248 610.265 187.04 608.249 187.712C606.233 188.384 604.001 188.72 601.553 188.72C598.049 188.72 594.929 187.904 592.193 186.272C589.457 184.592 587.321 182.288 585.785 179.36C584.297 176.432 583.553 173.144 583.553 169.496C583.553 165.992 584.321 162.8 585.857 159.92C587.393 156.992 589.553 154.664 592.337 152.936C595.121 151.208 598.313 150.344 601.913 150.344ZM652.865 151.208C653.489 151.208 653.993 151.424 654.377 151.856C654.809 152.288 655.025 152.816 655.025 153.44V185.84C655.025 186.464 654.809 186.992 654.377 187.424C653.993 187.808 653.489 188 652.865 188C652.241 188 651.713 187.808 651.281 187.424C650.897 186.992 650.705 186.464 650.705 185.84V181.016C649.505 183.176 647.705 185 645.305 186.488C642.905 187.976 640.289 188.72 637.457 188.72C634.241 188.72 631.337 187.88 628.745 186.2C626.201 184.52 624.185 182.216 622.697 179.288C621.257 176.36 620.537 173.072 620.537 169.424C620.537 165.776 621.281 162.512 622.769 159.632C624.257 156.704 626.273 154.424 628.817 152.792C631.409 151.16 634.265 150.344 637.385 150.344C640.265 150.344 642.905 151.04 645.305 152.432C647.705 153.824 649.505 155.648 650.705 157.904V153.44C650.705 152.816 650.897 152.288 651.281 151.856C651.713 151.424 652.241 151.208 652.865 151.208ZM637.889 184.688C640.385 184.688 642.617 184.04 644.585 182.744C646.601 181.4 648.161 179.576 649.265 177.272C650.417 174.92 650.993 172.304 650.993 169.424C650.993 166.64 650.417 164.096 649.265 161.792C648.161 159.488 646.601 157.688 644.585 156.392C642.617 155.048 640.385 154.376 637.889 154.376C635.393 154.376 633.137 155.024 631.121 156.32C629.153 157.616 627.593 159.416 626.441 161.72C625.337 163.976 624.785 166.544 624.785 169.424C624.785 172.304 625.337 174.92 626.441 177.272C627.545 179.576 629.081 181.4 631.049 182.744C633.065 184.04 635.345 184.688 637.889 184.688ZM664.209 182.168C663.825 181.544 663.633 181.016 663.633 180.584C663.633 179.96 663.945 179.48 664.569 179.144C664.857 178.856 665.241 178.712 665.721 178.712C666.297 178.712 666.825 178.952 667.305 179.432C670.137 183.176 673.905 185.048 678.609 185.048C680.913 185.048 682.905 184.52 684.585 183.464C686.313 182.36 687.177 180.776 687.177 178.712C687.177 176.696 686.385 175.184 684.801 174.176C683.217 173.168 681.009 172.304 678.177 171.584C674.193 170.576 671.073 169.28 668.817 167.696C666.561 166.064 665.433 163.688 665.433 160.568C665.433 158.6 665.985 156.848 667.089 155.312C668.193 153.728 669.681 152.504 671.553 151.64C673.473 150.776 675.633 150.344 678.033 150.344C680.097 150.344 682.161 150.752 684.225 151.568C686.337 152.336 688.137 153.584 689.625 155.312C690.057 155.648 690.273 156.128 690.273 156.752C690.273 157.328 690.033 157.832 689.553 158.264C689.217 158.552 688.785 158.696 688.257 158.696C687.777 158.696 687.345 158.504 686.961 158.12C685.809 156.824 684.441 155.84 682.857 155.168C681.273 154.496 679.569 154.16 677.745 154.16C675.489 154.16 673.545 154.688 671.913 155.744C670.329 156.8 669.537 158.384 669.537 160.496C669.633 162.416 670.497 163.88 672.129 164.888C673.809 165.896 676.257 166.808 679.473 167.624C681.969 168.248 684.033 168.944 685.665 169.712C687.297 170.48 688.617 171.56 689.625 172.952C690.681 174.344 691.209 176.192 691.209 178.496C691.209 181.616 689.961 184.112 687.465 185.984C684.969 187.808 681.873 188.72 678.177 188.72C672.321 188.72 667.665 186.536 664.209 182.168ZM757.103 150.272C757.775 150.272 758.327 150.512 758.759 150.992C759.191 151.424 759.407 151.976 759.407 152.648C759.407 153.272 759.191 153.776 758.759 154.16C758.327 154.544 757.775 154.736 757.103 154.736H750.551L747.815 170.576H754.295C754.967 170.576 755.519 170.792 755.951 171.224C756.383 171.656 756.599 172.208 756.599 172.88C756.599 173.504 756.383 174.008 755.951 174.392C755.519 174.776 754.967 174.968 754.295 174.968H747.095L745.151 186.128C745.055 186.704 744.815 187.16 744.431 187.496C744.047 187.832 743.567 188 742.991 188C742.367 188 741.839 187.784 741.407 187.352C740.975 186.872 740.759 186.296 740.759 185.624L740.831 185.048L742.559 174.968H728.447L726.503 186.128C726.455 186.704 726.215 187.16 725.783 187.496C725.399 187.832 724.919 188 724.343 188C723.719 188 723.191 187.784 722.759 187.352C722.327 186.872 722.111 186.296 722.111 185.624L722.183 185.048L723.911 174.968H718.079C717.455 174.968 716.903 174.752 716.423 174.32C715.991 173.84 715.775 173.288 715.775 172.664C715.775 172.04 715.991 171.536 716.423 171.152C716.855 170.768 717.407 170.576 718.079 170.576H724.703L727.367 154.736H720.959C720.287 154.736 719.711 154.52 719.231 154.088C718.799 153.608 718.583 153.032 718.583 152.36C718.583 151.736 718.799 151.232 719.231 150.848C719.711 150.464 720.287 150.272 720.959 150.272H728.159L730.031 139.472C730.127 138.896 730.367 138.44 730.751 138.104C731.183 137.768 731.663 137.6 732.191 137.6C732.959 137.6 733.535 137.888 733.919 138.464C734.351 138.992 734.495 139.664 734.351 140.48L732.695 150.272H746.807L748.679 139.472C748.775 138.896 749.015 138.44 749.399 138.104C749.783 137.768 750.263 137.6 750.839 137.6C751.607 137.6 752.183 137.888 752.567 138.464C752.999 138.992 753.143 139.664 752.999 140.48L751.343 150.272H757.103ZM746.015 154.736H731.903L729.167 170.576H743.351L746.015 154.736ZM796.292 137.6C796.916 137.6 797.42 137.816 797.804 138.248C798.236 138.632 798.452 139.136 798.452 139.76C798.452 140.336 798.236 140.84 797.804 141.272C797.42 141.656 796.916 141.848 796.292 141.848H772.316V159.92H793.052C793.676 159.92 794.18 160.112 794.564 160.496C794.996 160.88 795.212 161.384 795.212 162.008C795.212 162.632 794.996 163.136 794.564 163.52C794.18 163.904 793.676 164.096 793.052 164.096H772.316V185.84C772.316 186.464 772.1 186.992 771.668 187.424C771.284 187.808 770.78 188 770.156 188C769.484 188 768.932 187.808 768.5 187.424C768.116 186.992 767.924 186.464 767.924 185.84V139.76C767.924 139.136 768.116 138.632 768.5 138.248C768.932 137.816 769.46 137.6 770.084 137.6H796.292ZM837.074 137.6C837.698 137.6 838.202 137.816 838.586 138.248C839.018 138.632 839.234 139.136 839.234 139.76C839.234 140.336 839.018 140.84 838.586 141.272C838.202 141.656 837.698 141.848 837.074 141.848H813.098V159.92H833.834C834.458 159.92 834.962 160.112 835.346 160.496C835.778 160.88 835.994 161.384 835.994 162.008C835.994 162.632 835.778 163.136 835.346 163.52C834.962 163.904 834.458 164.096 833.834 164.096H813.098V185.84C813.098 186.464 812.882 186.992 812.45 187.424C812.066 187.808 811.562 188 810.938 188C810.266 188 809.714 187.808 809.282 187.424C808.898 186.992 808.706 186.464 808.706 185.84V139.76C808.706 139.136 808.898 138.632 809.282 138.248C809.714 137.816 810.242 137.6 810.866 137.6H837.074ZM885.646 141.344C886.366 141.776 886.726 142.376 886.726 143.144C886.726 143.576 886.558 144.056 886.222 144.584C885.79 145.112 885.238 145.376 884.566 145.376C884.182 145.376 883.798 145.256 883.414 145.016C879.574 142.472 875.374 141.2 870.814 141.2C866.926 141.2 863.398 142.112 860.23 143.936C857.11 145.76 854.638 148.328 852.814 151.64C851.038 154.904 850.15 158.624 850.15 162.8C850.15 167.072 851.062 170.864 852.886 174.176C854.71 177.44 857.182 179.984 860.302 181.808C863.47 183.584 866.974 184.472 870.814 184.472C875.374 184.472 879.55 183.224 883.342 180.728C883.726 180.488 884.134 180.368 884.566 180.368C885.238 180.368 885.79 180.656 886.222 181.232C886.558 181.616 886.726 182.072 886.726 182.6C886.726 183.368 886.39 183.944 885.718 184.328C883.846 185.576 881.542 186.632 878.806 187.496C876.07 188.312 873.406 188.72 870.814 188.72C866.254 188.72 862.03 187.64 858.142 185.48C854.302 183.272 851.23 180.2 848.926 176.264C846.67 172.328 845.542 167.84 845.542 162.8C845.542 157.952 846.67 153.56 848.926 149.624C851.182 145.64 854.23 142.544 858.07 140.336C861.91 138.08 866.158 136.952 870.814 136.952C873.502 136.952 876.118 137.336 878.662 138.104C881.254 138.872 883.582 139.952 885.646 141.344ZM910.509 188.72C906.717 188.72 903.525 187.592 900.933 185.336C898.341 183.08 896.373 180.008 895.029 176.12C893.733 172.184 893.085 167.744 893.085 162.8C893.085 157.808 893.733 153.368 895.029 149.48C896.325 145.592 898.269 142.52 900.861 140.264C903.501 138.008 906.717 136.88 910.509 136.88C914.301 136.88 917.493 138.008 920.085 140.264C922.725 142.472 924.693 145.544 925.989 149.48C927.333 153.368 928.005 157.808 928.005 162.8C928.005 167.744 927.333 172.184 925.989 176.12C924.693 180.008 922.725 183.08 920.085 185.336C917.493 187.592 914.301 188.72 910.509 188.72ZM910.509 184.256C914.637 184.256 917.805 182.336 920.013 178.496C922.269 174.608 923.397 169.376 923.397 162.8C923.397 156.176 922.269 150.944 920.013 147.104C917.805 143.216 914.637 141.272 910.509 141.272C906.429 141.272 903.261 143.216 901.005 147.104C898.797 150.944 897.693 156.176 897.693 162.8C897.693 169.376 898.797 174.608 901.005 178.496C903.261 182.336 906.429 184.256 910.509 184.256ZM975.505 141.344C976.225 141.776 976.585 142.376 976.585 143.144C976.585 143.576 976.417 144.056 976.081 144.584C975.649 145.112 975.097 145.376 974.425 145.376C974.041 145.376 973.657 145.256 973.273 145.016C969.433 142.472 965.233 141.2 960.673 141.2C956.785 141.2 953.257 142.112 950.089 143.936C946.969 145.76 944.497 148.328 942.673 151.64C940.897 154.904 940.009 158.624 940.009 162.8C940.009 167.072 940.921 170.864 942.745 174.176C944.569 177.44 947.041 179.984 950.161 181.808C953.329 183.584 956.833 184.472 960.673 184.472C965.233 184.472 969.409 183.224 973.201 180.728C973.585 180.488 973.993 180.368 974.425 180.368C975.097 180.368 975.649 180.656 976.081 181.232C976.417 181.616 976.585 182.072 976.585 182.6C976.585 183.368 976.249 183.944 975.577 184.328C973.705 185.576 971.401 186.632 968.665 187.496C965.929 188.312 963.265 188.72 960.673 188.72C956.113 188.72 951.889 187.64 948.001 185.48C944.161 183.272 941.089 180.2 938.785 176.264C936.529 172.328 935.401 167.84 935.401 162.8C935.401 157.952 936.529 153.56 938.785 149.624C941.041 145.64 944.089 142.544 947.929 140.336C951.769 138.08 956.017 136.952 960.673 136.952C963.361 136.952 965.977 137.336 968.521 138.104C971.113 138.872 973.441 139.952 975.505 141.344ZM1012.68 161.216C1015.56 161.936 1017.91 163.376 1019.74 165.536C1021.56 167.696 1022.47 170.504 1022.47 173.96C1022.47 178.664 1021.01 182.192 1018.08 184.544C1015.2 186.848 1011.6 188 1007.28 188H987.912C987.288 188 986.76 187.808 986.328 187.424C985.944 186.992 985.752 186.464 985.752 185.84V139.76C985.752 139.136 985.944 138.632 986.328 138.248C986.76 137.816 987.288 137.6 987.912 137.6H1006.99C1011.02 137.6 1014.17 138.704 1016.42 140.912C1018.73 143.12 1019.88 146.144 1019.88 149.984C1019.88 152.528 1019.26 154.808 1018.01 156.824C1016.76 158.84 1014.98 160.304 1012.68 161.216ZM1015.27 150.344C1015.27 147.704 1014.48 145.64 1012.9 144.152C1011.36 142.616 1009.2 141.848 1006.42 141.848H990.36V159.848H1006.42C1009.01 159.8 1011.12 158.96 1012.75 157.328C1014.43 155.696 1015.27 153.368 1015.27 150.344ZM1007.06 183.752C1010.28 183.752 1012.87 182.936 1014.84 181.304C1016.86 179.672 1017.86 177.224 1017.86 173.96C1017.86 170.6 1016.83 168.128 1014.77 166.544C1012.75 164.96 1010.14 164.168 1006.92 164.168H990.36V183.752H1007.06Z" fill="#FFFEFE"/>
<path d="M1026.5 210H770V220H1026.5V210Z" fill="#C82F63"/>
<path d="M403.092 102H357.215V124.938H331V170.815H376.877V147.877H403.092V102Z" fill="#C82F63"/>
<path d="M331 175.185H376.877V198.123H403.092V244H357.215V221.061H331V175.185Z" fill="#822659"/>
<path d="M478.461 175.185H432.585V198.123H406.369V244H452.246V221.061H478.461V175.185Z" fill="#E36BAE"/>
<path d="M478.461 170.815H432.585V147.877H406.369V102H452.246V124.938H478.461V170.815Z" fill="#EC7EAD"/>
</svg>
